<svg width="25" height="24" viewBox="0 0 25 24" fill="none" xmlns="http://www.w3.org/2000/svg">
<path d="M16.973 2H8.59296C4.95296 2 2.78296 4.17 2.78296 7.81V16.18C2.78296 19.83 4.95296 22 8.59296 22H16.963C20.603 22 22.773 19.83 22.773 16.19V7.81C22.783 4.17 20.613 2 16.973 2ZM9.89296 16.9C9.89296 17.18 9.67296 17.4 9.39296 17.4H6.60296C6.32296 17.4 6.10296 17.18 6.10296 16.9V12.28C6.10296 11.65 6.61296 11.14 7.24296 11.14H9.39296C9.67296 11.14 9.89296 11.36 9.89296 11.64V16.9ZM14.673 16.9C14.673 17.18 14.453 17.4 14.173 17.4H11.383C11.103 17.4 10.883 17.18 10.883 16.9V7.74C10.883 7.11 11.393 6.6 12.023 6.6H13.543C14.173 6.6 14.683 7.11 14.683 7.74V16.9H14.673ZM19.463 16.9C19.463 17.18 19.243 17.4 18.963 17.4H16.173C15.893 17.4 15.673 17.18 15.673 16.9V13.35C15.673 13.07 15.893 12.85 16.173 12.85H18.323C18.953 12.85 19.463 13.36 19.463 13.99V16.9Z" fill="#F9C36A"/>
</svg>
