<svg width="25" height="24" viewBox="0 0 25 24" fill="none" xmlns="http://www.w3.org/2000/svg">
    <path d="M22.083 12.23H18.603C17.623 12.23 16.753 12.77 16.313 13.65L15.473 15.31C15.273 15.71 14.873 15.96 14.433 15.96H11.153C10.843 15.96 10.403 15.89 10.113 15.31L9.27296 13.66C8.83296 12.79 7.95296 12.24 6.98296 12.24H3.48296C3.09296 12.24 2.78296 12.55 2.78296 12.94V16.2C2.78296 19.83 4.96296 22 8.60296 22H16.983C20.413 22 22.523 20.12 22.783 16.78V12.93C22.783 12.55 22.473 12.23 22.083 12.23Z" fill="#F9C36A"/>
    <path d="M16.973 2H8.59296C4.95296 2 2.78296 4.17 2.78296 7.81V10.85C3.00296 10.77 3.24296 10.73 3.48296 10.73H6.98296C8.53296 10.73 9.92296 11.59 10.613 12.98L11.363 14.45H14.223L14.973 12.97C15.663 11.59 17.053 10.73 18.603 10.73H22.083C22.323 10.73 22.563 10.77 22.783 10.85V7.81C22.783 4.17 20.613 2 16.973 2ZM11.233 5.41H14.333C14.713 5.41 15.033 5.72 15.033 6.1C15.033 6.49 14.713 6.8 14.333 6.8H11.233C10.853 6.8 10.533 6.49 10.533 6.1C10.533 5.72 10.853 5.41 11.233 5.41ZM15.113 9.59H10.453C10.073 9.59 9.76296 9.28 9.76296 8.9C9.76296 8.51 10.073 8.2 10.453 8.2H15.113C15.493 8.2 15.803 8.51 15.803 8.9C15.803 9.28 15.493 9.59 15.113 9.59Z" fill="#F9C36A"/>
</svg>