<svg width="32" height="32" viewBox="0 0 32 32" fill="none" xmlns="http://www.w3.org/2000/svg">
<path d="M22.6667 17.8667V21.8667C22.6667 27.2 20.5334 29.3333 15.2 29.3333H10.1334C4.80002 29.3333 2.66669 27.2 2.66669 21.8667V16.8C2.66669 11.4667 4.80002 9.33334 10.1334 9.33334H14.1334" stroke="white" stroke-width="1.5" stroke-linecap="round" stroke-linejoin="round"/>
<path d="M22.6667 17.8667H18.4C15.2 17.8667 14.1334 16.8 14.1334 13.6V9.33334L22.6667 17.8667Z" stroke="white" stroke-width="1.5" stroke-linecap="round" stroke-linejoin="round"/>
<path d="M15.4667 2.66666H20.8" stroke="white" stroke-width="1.5" stroke-linecap="round" stroke-linejoin="round"/>
<path d="M9.33331 6.66666C9.33331 4.45332 11.12 2.66666 13.3333 2.66666H16.8266" stroke="white" stroke-width="1.5" stroke-linecap="round" stroke-linejoin="round"/>
<path d="M29.3333 10.6667V18.92C29.3333 20.9867 27.6533 22.6667 25.5867 22.6667" stroke="white" stroke-width="1.5" stroke-linecap="round" stroke-linejoin="round"/>
<path d="M29.3333 10.6667H25.3333C22.3333 10.6667 21.3333 9.66666 21.3333 6.66666V2.66666L29.3333 10.6667Z" stroke="white" stroke-width="1.5" stroke-linecap="round" stroke-linejoin="round"/>
</svg>
